<svg width="86" height="87" viewBox="0 0 86 87" fill="none" xmlns="http://www.w3.org/2000/svg">
<path d="M32.8887 1.13146C34.3129 0.564546 35.9112 0.566962 37.7323 0.569714L47.9602 0.570102V5.96356H38.1188C35.6817 5.96356 35.1953 6.00888 34.8391 6.15068C34.424 6.31591 34.0565 6.58398 33.7704 6.93031C33.5248 7.2275 33.3286 7.68012 32.5578 10.0202L30.3413 16.7505H50.6246C52.0962 16.7505 53.2891 17.9578 53.2891 19.4472C53.2891 20.9366 52.0962 22.1439 50.6246 22.1439H2.66446C1.19292 22.1439 0 20.9366 0 19.4472C0 17.9578 1.19292 16.7505 2.66445 16.7505H24.7241L27.6243 7.94343C28.1976 6.19401 28.7007 4.65856 29.6825 3.47036C30.5409 2.43139 31.6434 1.62717 32.8887 1.13146Z" fill="white"/>
<path d="M2.66445 26.189L7.30258 78.9999C7.54638 81.7759 7.66828 83.1639 8.28069 84.2138C8.82001 85.1384 9.61974 85.8791 10.5775 86.3409C11.665 86.8654 13.0418 86.8654 15.7954 86.8654H28.0739C26.3525 84.8366 25.3123 82.1985 25.3123 79.3145C25.3123 77.9395 25.7745 76.6737 26.5503 75.6676C24.1875 73.9553 22.6479 71.1538 22.6479 67.9883C22.6479 64.7705 24.2388 61.9289 26.6679 60.2251C25.8195 59.1494 25.3123 57.7859 25.3123 56.3025C25.3123 44.1393 35.0545 34.2792 47.072 34.2792H49.9141L50.6246 26.189H2.66445Z" fill="white"/>
<path fill-rule="evenodd" clip-rule="evenodd" d="M47.072 38.3243C37.2618 38.3243 29.309 46.3734 29.309 56.3025C29.309 57.5436 30.3031 58.5497 31.5294 58.5497H80.3777C81.604 58.5497 82.5981 57.5436 82.5981 56.3025C82.5981 46.3734 74.6453 38.3243 64.8351 38.3243H47.072ZM46.628 45.0661C46.628 45.8108 46.0315 46.4145 45.2957 46.4145C44.56 46.4145 43.9635 45.8108 43.9635 45.0661C43.9635 44.3214 44.56 43.7177 45.2957 43.7177C46.0315 43.7177 46.628 44.3214 46.628 45.0661ZM43.9635 47.7628C43.9635 48.5075 43.367 49.1112 42.6313 49.1112C41.8955 49.1112 41.299 48.5075 41.299 47.7628C41.299 47.0181 41.8955 46.4145 42.6313 46.4145C43.367 46.4145 43.9635 47.0181 43.9635 47.7628ZM49.2924 47.7628C49.2924 48.5075 48.696 49.1112 47.9602 49.1112C47.2244 49.1112 46.628 48.5075 46.628 47.7628C46.628 47.0181 47.2244 46.4145 47.9602 46.4145C48.696 46.4145 49.2924 47.0181 49.2924 47.7628ZM51.9569 45.0661C51.9569 45.8108 51.3604 46.4145 50.6246 46.4145C49.8889 46.4145 49.2924 45.8108 49.2924 45.0661C49.2924 44.3214 49.8889 43.7177 50.6246 43.7177C51.3604 43.7177 51.9569 44.3214 51.9569 45.0661ZM54.6213 47.7628C54.6213 48.5075 54.0249 49.1112 53.2891 49.1112C52.5533 49.1112 51.9569 48.5075 51.9569 47.7628C51.9569 47.0181 52.5533 46.4145 53.2891 46.4145C54.0249 46.4145 54.6213 47.0181 54.6213 47.7628ZM57.2858 45.0661C57.2858 45.8108 56.6893 46.4145 55.9536 46.4145C55.2178 46.4145 54.6213 45.8108 54.6213 45.0661C54.6213 44.3214 55.2178 43.7177 55.9536 43.7177C56.6893 43.7177 57.2858 44.3214 57.2858 45.0661ZM59.9502 47.7628C59.9502 48.5075 59.3538 49.1112 58.618 49.1112C57.8822 49.1112 57.2858 48.5075 57.2858 47.7628C57.2858 47.0181 57.8822 46.4145 58.618 46.4145C59.3538 46.4145 59.9502 47.0181 59.9502 47.7628ZM62.6147 45.0661C62.6147 45.8108 62.0182 46.4145 61.2825 46.4145C60.5467 46.4145 59.9502 45.8108 59.9502 45.0661C59.9502 44.3214 60.5467 43.7177 61.2825 43.7177C62.0182 43.7177 62.6147 44.3214 62.6147 45.0661ZM65.2791 47.7628C65.2791 48.5075 64.6827 49.1112 63.9469 49.1112C63.2111 49.1112 62.6147 48.5075 62.6147 47.7628C62.6147 47.0181 63.2111 46.4145 63.9469 46.4145C64.6827 46.4145 65.2791 47.0181 65.2791 47.7628ZM67.9436 45.0661C67.9436 45.8108 67.3471 46.4145 66.6114 46.4145C65.8756 46.4145 65.2791 45.8108 65.2791 45.0661C65.2791 44.3214 65.8756 43.7177 66.6114 43.7177C67.3471 43.7177 67.9436 44.3214 67.9436 45.0661ZM70.6081 47.7628C70.6081 48.5075 70.0116 49.1112 69.2758 49.1112C68.5401 49.1112 67.9436 48.5075 67.9436 47.7628C67.9436 47.0181 68.5401 46.4145 69.2758 46.4145C70.0116 46.4145 70.6081 47.0181 70.6081 47.7628Z" fill="white"/>
<path d="M31.9735 62.5948C29.0304 62.5948 26.6445 65.0096 26.6445 67.9883C26.6445 70.967 29.0304 73.3817 31.9735 73.3817H79.9336C82.8767 73.3817 85.2626 70.967 85.2626 67.9883C85.2626 65.0096 82.8767 62.5948 79.9336 62.5948H31.9735Z" fill="white"/>
<path d="M29.309 79.3145C29.309 78.272 30.144 77.4268 31.1741 77.4268H80.733C81.7631 77.4268 82.5981 78.272 82.5981 79.3145C82.5981 83.4847 79.2579 86.8654 75.1376 86.8654H36.7695C32.6492 86.8654 29.309 83.4847 29.309 79.3145Z" fill="white"/>
</svg>
